<svg xmlns="http://www.w3.org/2000/svg" width="24" height="24" viewBox="0 0 24 24">
	<g id="Group_4470" data-name="Group 4470" transform="translate(-656 -1035)">
		<g id="Rectangle_588" data-name="Rectangle 588" transform="translate(656 1035)" fill="#e6e4da" stroke="#707070" stroke-width="1" opacity="0">
			<rect width="24" height="24" stroke="none" />
			<rect x="0.5" y="0.5" width="23" height="23" fill="none" />
		</g>
		<g id="food-and-restaurant" transform="translate(656.986 1038.679)">
			<path id="Path_18162" data-name="Path 18162" d="M104.594,45.33c-3.432,0-5.8,3.145-4.7,6.083a.206.206,0,0,0,.214.133,6.887,6.887,0,0,1,5.349,1.722.207.207,0,0,0,.333-.081,6.1,6.1,0,0,1,3.605-3.513.207.207,0,0,0,.133-.216A4.841,4.841,0,0,0,104.594,45.33Zm-.394,3.751h-.238a.207.207,0,0,0-.207.207v.256a.662.662,0,0,1-.695.661.674.674,0,0,1-.629-.68v-.238a.207.207,0,0,0-.207-.207h-.238a.674.674,0,0,1-.68-.63.662.662,0,0,1,.661-.694h.256a.207.207,0,0,0,.207-.207v-.238a.674.674,0,0,1,.629-.68.662.662,0,0,1,.695.661v.256a.207.207,0,0,0,.207.207h.256a.662.662,0,0,1,.661.693A.674.674,0,0,1,104.2,49.081Z" transform="translate(-95.505 -45.33)" fill="#e6e4da" />
			<path id="Path_18163" data-name="Path 18163" d="M277.253,172.27a4.806,4.806,0,0,0-4.951,4.275.205.205,0,0,0,.025.112,5.972,5.972,0,0,1,.706,2.562.207.207,0,0,0,.036.108,5.09,5.09,0,0,0,4.184,2.12,4.6,4.6,0,1,0,0-9.178Zm2.982,3.75H280a.207.207,0,0,0-.207.207v.238a.674.674,0,0,1-.629.68.662.662,0,0,1-.695-.661v-.256a.207.207,0,0,0-.207-.207H278a.662.662,0,0,1-.661-.693.674.674,0,0,1,.68-.63h.238a.207.207,0,0,0,.207-.207v-.238a.674.674,0,0,1,.63-.68.662.662,0,0,1,.693.661v.256a.207.207,0,0,0,.207.207h.256a.662.662,0,0,1,.661.695A.674.674,0,0,1,280.235,176.02Z" transform="translate(-261.037 -167.019)" fill="#e6e4da" />
			<path id="Path_18164" data-name="Path 18164" d="M5.339,226.67a4.977,4.977,0,1,0,0,9.928,4.977,4.977,0,1,0,0-9.928Zm1.106,3.376H6.208a.207.207,0,0,0-.207.207v.238a.674.674,0,0,1-.63.68.662.662,0,0,1-.693-.661v-.257a.207.207,0,0,0-.207-.207H4.214a.662.662,0,0,1-.661-.695.674.674,0,0,1,.68-.629h.238a.207.207,0,0,0,.207-.207v-.238a.674.674,0,0,1,.629-.68.662.662,0,0,1,.695.661v.256a.207.207,0,0,0,.207.207h.256a.662.662,0,0,1,.661.693.674.674,0,0,1-.68.63Z" transform="translate(0 -219.168)" fill="#e6e4da" />
		</g>
	</g>
</svg>
