<svg xmlns="http://www.w3.org/2000/svg" width="24" height="24" viewBox="0 0 24 24">
	<g id="Group_4475" data-name="Group 4475" transform="translate(-624 -1064)">
		<g id="Rectangle_589" data-name="Rectangle 589" transform="translate(624 1064)" fill="#e6e4da" stroke="#707070" stroke-width="1" opacity="0">
			<rect width="24" height="24" stroke="none" />
			<rect x="0.5" y="0.5" width="23" height="23" fill="none" />
		</g>
		<g id="certificate" transform="translate(546.011 1065.179)">
			<path id="Path_18168" data-name="Path 18168" d="M191.957,107.151a2.7,2.7,0,1,0,2.695,2.7A2.7,2.7,0,0,0,191.957,107.151Z" transform="translate(-102.45 -102.825)" fill="#e6e4da" />
			<path id="Path_18169" data-name="Path 18169" d="M95.964,7.989a1.706,1.706,0,0,0,.548-1.1,1.72,1.72,0,0,0-.568-1.118,2.157,2.157,0,0,1-.254-.321,1.989,1.989,0,0,1,.088-.412,1.673,1.673,0,0,0,.024-1.2l0-.007a1.714,1.714,0,0,0-.977-.747,1.808,1.808,0,0,1-.358-.178,1.8,1.8,0,0,1-.095-.4,1.693,1.693,0,0,0-.505-1.112,1.645,1.645,0,0,0-1.207-.261,1.813,1.813,0,0,1-.4,0A1.814,1.814,0,0,1,92,.815a1.674,1.674,0,0,0-.951-.787,1.673,1.673,0,0,0-1.188.289,1.769,1.769,0,0,1-.372.172,1.788,1.788,0,0,1-.372-.172,1.673,1.673,0,0,0-1.184-.29,1.678,1.678,0,0,0-.956.788,1.815,1.815,0,0,1-.254.314,1.746,1.746,0,0,1-.392,0,1.669,1.669,0,0,0-1.207.258,1.688,1.688,0,0,0-.509,1.115,1.816,1.816,0,0,1-.095.4,1.8,1.8,0,0,1-.359.178,1.713,1.713,0,0,0-.977.747l-.006.013a1.694,1.694,0,0,0,.028,1.2,1.694,1.694,0,0,1,.086.418,1.752,1.752,0,0,1-.248.325,1.706,1.706,0,0,0-.548,1.1,1.72,1.72,0,0,0,.568,1.119,2.157,2.157,0,0,1,.254.321,1.988,1.988,0,0,1-.088.412,1.673,1.673,0,0,0-.024,1.2l0,.007a1.715,1.715,0,0,0,.977.747,1.8,1.8,0,0,1,.358.178,1.8,1.8,0,0,1,.095.4,1.694,1.694,0,0,0,.505,1.112,1.645,1.645,0,0,0,1.207.261,1.813,1.813,0,0,1,.4,0,1.813,1.813,0,0,1,.255.314,1.37,1.37,0,0,0,2.139.5,1.77,1.77,0,0,1,.372-.172,1.788,1.788,0,0,1,.372.172,2,2,0,0,0,.94.318,1.084,1.084,0,0,0,.243-.027,1.68,1.68,0,0,0,.956-.788,1.815,1.815,0,0,1,.254-.314,1.746,1.746,0,0,1,.392,0,1.669,1.669,0,0,0,1.207-.258,1.688,1.688,0,0,0,.509-1.115,1.816,1.816,0,0,1,.095-.4,1.8,1.8,0,0,1,.359-.178,1.715,1.715,0,0,0,.977-.747l.006-.013a1.694,1.694,0,0,0-.028-1.2,1.694,1.694,0,0,1-.086-.418,1.753,1.753,0,0,1,.248-.325Zm-6.458,2.733A3.874,3.874,0,0,1,85.6,6.888a3.906,3.906,0,0,1,7.811,0A3.874,3.874,0,0,1,89.506,10.721Z" transform="translate(0 0)" fill="#e6e4da" />
			<path id="Path_18170" data-name="Path 18170" d="M140.1,342.638a2.646,2.646,0,0,1-1.531-1.087,2.725,2.725,0,0,1-1.467-.332v6.29a.605.605,0,0,0,.823.565l3.373-1.3V342.6A2.342,2.342,0,0,1,140.1,342.638Z" transform="translate(-52.399 -327.441)" fill="#e6e4da" />
			<path id="Path_18171" data-name="Path 18171" d="M273.77,341.868a2.645,2.645,0,0,1-1.528,1.086,2.278,2.278,0,0,1-.516.06,2.471,2.471,0,0,1-.735-.116v4.192l3.4,1.3a.6.6,0,0,0,.821-.566v-6.277A2.754,2.754,0,0,1,273.77,341.868Z" transform="translate(-180.879 -327.759)" fill="#e6e4da" />
		</g>
	</g>
</svg>
